<svg width="24" height="24" viewBox="0 0 24 24" fill="none" xmlns="http://www.w3.org/2000/svg">
<path d="M23.5 3.88574V5.88574C23.5 6.41617 23.2893 6.92488 22.9142 7.29996C22.5391 7.67503 22.0304 7.88574 21.5 7.88574C20.9696 7.88574 20.4609 7.67503 20.0858 7.29996C19.7107 6.92488 19.5 6.41617 19.5 5.88574V3.88574C19.5 3.35531 19.7107 2.8466 20.0858 2.47153C20.4609 2.09646 20.9696 1.88574 21.5 1.88574C22.0304 1.88574 22.5391 2.09646 22.9142 2.47153C23.2893 2.8466 23.5 3.35531 23.5 3.88574ZM2.5 5.88574H16.5C16.7652 5.88574 17.0196 5.78038 17.2071 5.59285C17.3946 5.40531 17.5 5.15096 17.5 4.88574C17.5 4.62053 17.3946 4.36617 17.2071 4.17864C17.0196 3.9911 16.7652 3.88574 16.5 3.88574H2.5C2.23478 3.88574 1.98043 3.9911 1.79289 4.17864C1.60536 4.36617 1.5 4.62053 1.5 4.88574C1.5 5.15096 1.60536 5.40531 1.79289 5.59285C1.98043 5.78038 2.23478 5.88574 2.5 5.88574ZM22.5 10.8857H12.5C12.2348 10.8857 11.9804 10.9911 11.7929 11.1786C11.6054 11.3662 11.5 11.6205 11.5 11.8857C11.5 12.151 11.6054 12.4053 11.7929 12.5928C11.9804 12.7804 12.2348 12.8857 12.5 12.8857H22.5C22.7652 12.8857 23.0196 12.7804 23.2071 12.5928C23.3946 12.4053 23.5 12.151 23.5 11.8857C23.5 11.6205 23.3946 11.3662 23.2071 11.1786C23.0196 10.9911 22.7652 10.8857 22.5 10.8857ZM2.5 12.8857H5.5C5.5 13.4162 5.71071 13.9249 6.08579 14.3C6.46086 14.675 6.96957 14.8857 7.5 14.8857C8.03043 14.8857 8.53914 14.675 8.91421 14.3C9.28929 13.9249 9.5 13.4162 9.5 12.8857V10.8857C9.5 10.3553 9.28929 9.8466 8.91421 9.47153C8.53914 9.09646 8.03043 8.88574 7.5 8.88574C6.96957 8.88574 6.46086 9.09646 6.08579 9.47153C5.71071 9.8466 5.5 10.3553 5.5 10.8857H2.5C2.23478 10.8857 1.98043 10.9911 1.79289 11.1786C1.60536 11.3662 1.5 11.6205 1.5 11.8857C1.5 12.151 1.60536 12.4053 1.79289 12.5928C1.98043 12.7804 2.23478 12.8857 2.5 12.8857ZM12.5 17.8857H2.5C2.23478 17.8857 1.98043 17.9911 1.79289 18.1786C1.60536 18.3662 1.5 18.6205 1.5 18.8857C1.5 19.151 1.60536 19.4053 1.79289 19.5928C1.98043 19.7804 2.23478 19.8857 2.5 19.8857H12.5C12.7652 19.8857 13.0196 19.7804 13.2071 19.5928C13.3946 19.4053 13.5 19.151 13.5 18.8857C13.5 18.6205 13.3946 18.3662 13.2071 18.1786C13.0196 17.9911 12.7652 17.8857 12.5 17.8857ZM22.5 17.8857H19.5C19.5 17.3553 19.2893 16.8466 18.9142 16.4715C18.5391 16.0965 18.0304 15.8857 17.5 15.8857C16.9696 15.8857 16.4609 16.0965 16.0858 16.4715C15.7107 16.8466 15.5 17.3553 15.5 17.8857V19.8857C15.5 20.4162 15.7107 20.9249 16.0858 21.3C16.4609 21.675 16.9696 21.8857 17.5 21.8857C18.0304 21.8857 18.5391 21.675 18.9142 21.3C19.2893 20.9249 19.5 20.4162 19.5 19.8857H22.5C22.7652 19.8857 23.0196 19.7804 23.2071 19.5928C23.3946 19.4053 23.5 19.151 23.5 18.8857C23.5 18.6205 23.3946 18.3662 23.2071 18.1786C23.0196 17.9911 22.7652 17.8857 22.5 17.8857Z" />
</svg>
